<svg xmlns="http://www.w3.org/2000/svg" width="101.155" height="12.591" viewBox="0 0 101.155 12.591">
  <g id="Group_212" data-name="Group 212" transform="translate(-370 -3596.999)">
    <path id="Icon_awesome-star" data-name="Icon awesome-star" d="M7.313.437,5.708,3.693l-3.592.524A.787.787,0,0,0,1.68,5.559l2.6,2.533-.615,3.578a.786.786,0,0,0,1.141.829l3.214-1.689L11.233,12.5a.787.787,0,0,0,1.141-.829l-.615-3.578,2.6-2.533a.787.787,0,0,0-.435-1.343L10.33,3.693,8.725.437a.788.788,0,0,0-1.411,0Z" transform="translate(368.559 3597)" fill="#f4c521"/>
    <path id="Icon_awesome-star-2" data-name="Icon awesome-star" d="M7.313.437,5.708,3.693l-3.592.524A.787.787,0,0,0,1.68,5.559l2.6,2.533-.615,3.578a.786.786,0,0,0,1.141.829l3.214-1.689L11.233,12.5a.787.787,0,0,0,1.141-.829l-.615-3.578,2.6-2.533a.787.787,0,0,0-.435-1.343L10.33,3.693,8.725.437a.788.788,0,0,0-1.411,0Z" transform="translate(412.559 3597)" fill="#f4c521"/>
    <path id="Icon_awesome-star-3" data-name="Icon awesome-star" d="M7.313.437,5.708,3.693l-3.592.524A.787.787,0,0,0,1.68,5.559l2.6,2.533-.615,3.578a.786.786,0,0,0,1.141.829l3.214-1.689L11.233,12.5a.787.787,0,0,0,1.141-.829l-.615-3.578,2.6-2.533a.787.787,0,0,0-.435-1.343L10.33,3.693,8.725.437a.788.788,0,0,0-1.411,0Z" transform="translate(390.559 3597)" fill="#f4c521"/>
    <path id="Icon_awesome-star-4" data-name="Icon awesome-star" d="M7.313.437,5.708,3.693l-3.592.524A.787.787,0,0,0,1.68,5.559l2.6,2.533-.615,3.578a.786.786,0,0,0,1.141.829l3.214-1.689L11.233,12.5a.787.787,0,0,0,1.141-.829l-.615-3.578,2.6-2.533a.787.787,0,0,0-.435-1.343L10.33,3.693,8.725.437a.788.788,0,0,0-1.411,0Z" transform="translate(434.559 3597)" fill="#f4c521"/>
    <path id="Icon_awesome-star-5" data-name="Icon awesome-star" d="M7.313.437,5.708,3.693l-3.592.524A.787.787,0,0,0,1.68,5.559l2.6,2.533-.615,3.578a.786.786,0,0,0,1.141.829l3.214-1.689L11.233,12.5a.787.787,0,0,0,1.141-.829l-.615-3.578,2.6-2.533a.787.787,0,0,0-.435-1.343L10.33,3.693,8.725.437a.788.788,0,0,0-1.411,0Z" transform="translate(456.559 3597)" fill="#f4c521"/>
  </g>
</svg>
